# xmcd
# Track frame offsets:
# 150
# 20142
# 38382
# 58396
# 71082
# 90509
# 103696
# 125893
# 142394
# 155807
# 174368
# 190061
# 207224
#
# Disc length: 3070 seconds
# Revision: 0
# Processed by: cddbd v1.5.2PL0 Copyright (c) Steve Scherf et al.
# Submitted via: VisiTrax 2.10.3.257 - For more info visit www.synapsa.com
#
DISCID=c40bfc0d
DTITLE=Henry, Jayne - Isa Queen
DYEAR=2002
DGENRE=Country
TTITLE0=Isa Queen
TTITLE1=Meet you at the Station
TTITLE2=He's my Man
TTITLE3=Kick it on
TTITLE4=Outback Angels
TTITLE5=Rhythm of our Love
TTITLE6=On the Outside of Love
TTITLE7=The Devils got holda Me
TTITLE8=Diggin Deep
TTITLE9=Spoken from my Heart
TTITLE10=Keep it Simple Stupid (KISS)
TTITLE11=Let's Play
TTITLE12=I thought of You
EXTD=
EXTT0=
EXTT1=
EXTT2=
EXTT3=
EXTT4=
EXTT5=
EXTT6=
EXTT7=
EXTT8=
EXTT9=
EXTT10=
EXTT11=
EXTT12=
PLAYORDER=
